# xmcd CD database file
#
# Track frame offsets:
#	150
#	18351
#	31201
#	45514
#	54769
#	67281
#	82142
#	93285
#	109510
#	120925
#	131702
#	148508
#	163241
#	179562
#
# Disc length: 2581 seconds
#
# Revision: 0
# Processed by: cddbd v1.5.2PL0 Copyright (c) Steve Scherf et al.
# Submitted via: CDex 1.70beta2
#
DISCID=ba0a130e
DTITLE=Disney - 和楽器ディズニー
DYEAR=2014
DGENRE=Jazz
TTITLE0=レット・イット・ゴー [田辺頌山]
TTITLE1=ジッパ・ディー・ドゥー・ダー [田辺頌山]
TTITLE2=ホール・ニュー・ワールド [稲葉明徳]
TTITLE3=ビビディ・バビディ・ブー [田辺頌山]
TTITLE4=真実の愛のキス [稲葉明徳]
TTITLE5=夢はひそかに [田辺頌山]
TTITLE6=彼こそが海賊 [田辺頌山]
TTITLE7=ベラ・ノッテ [兼松衆]
TTITLE8=ミッキーマウス・マーチ [田辺頌山]
TTITLE9=スーパーカリフラジリスティックエクスピアリドーシャス [Disney Orchestra]
TTITLE10=輝く未来 [Disney Orchestra]
TTITLE11=美女と野獣 [Disney Orchestra]
TTITLE12=チム・チム・チェリー [Disney Orchestra]
TTITLE13=小さな世界 [Disney Orchestra]
EXTD=YEAR: 2014
EXTT0=
EXTT1=
EXTT2=
EXTT3=
EXTT4=
EXTT5=
EXTT6=
EXTT7=
EXTT8=
EXTT9=
EXTT10=
EXTT11=
EXTT12=
EXTT13=
PLAYORDER=
